<svg xmlns="http://www.w3.org/2000/svg" viewBox="0 0 64 64">
  <defs>
    <linearGradient id="grad" x1="0%" y1="0%" x2="100%" y2="100%">
      <stop offset="0%" stop-color="#00e07a" />
      <stop offset="100%" stop-color="#00b8ff" />
    </linearGradient>
  </defs>
  <!-- Rounded square background -->
  <rect width="64" height="64" rx="14" fill="url(#grad)" />
  <!-- FontAwesome solid gamepad scaled to fit 40x32 and centered in 64x64 -->
  <g transform="translate(12, 16) scale(0.0625)" fill="#000">
    <path d="M192 64C86 64 0 150 0 256S86 448 192 448H448c106 0 192-86 192-192s-86-192-192-192H192zM149.3 222.7c-6.1-6.1-16-6.1-22.1 0l-5.5 5.5V208c0-8.8-7.2-16-16-16s-16 7.2-16 16v20.1l-5.5-5.5c-6.1-6.1-16-6.1-22.1 0s-6.1 16 0 22.1l5.5 5.5H48c-8.8 0-16 7.2-16 16s7.2 16 16 16h20.1l-5.5 5.5c-6.1 6.1-6.1 16 0 22.1s16 6.1 22.1 0l5.5-5.5V304c0 8.8 7.2 16 16 16s16-7.2 16-16V283.9l5.5 5.5c6.1 6.1 16 6.1 22.1 0s6.1-16 0-22.1l-5.5-5.5H128c8.8 0 16-7.2 16-16s-7.2-16-16-16H107.9l5.5-5.5c6.1-6.1 6.1-16 0-22.1zM480 320c-17.7 0-32-14.3-32-32s14.3-32 32-32 32 14.3 32 32-14.3 32-32 32zm32-96c-17.7 0-32-14.3-32-32s14.3-32 32-32 32 14.3 32 32-14.3 32-32 32zm-96 0c-17.7 0-32-14.3-32-32s14.3-32 32-32 32 14.3 32 32-14.3 32-32 32zm32 96c-17.7 0-32-14.3-32-32s14.3-32 32-32 32 14.3 32 32-14.3 32-32 32z"/>
  </g>
</svg>
